<?xml version="1.0" standalone="no"?>
<!DOCTYPE svg PUBLIC "-//W3C//DTD SVG 20010904//EN"
 "http://www.w3.org/TR/2001/REC-SVG-20010904/DTD/svg10.dtd">
<svg version="1.0" xmlns="http://www.w3.org/2000/svg"
 width="32.000000pt" height="32.000000pt" viewBox="0 0 32.000000 32.000000"
 preserveAspectRatio="xMidYMid meet">

<g transform="translate(0.000000,32.000000) scale(0.100000,-0.100000)"
fill="#000000" stroke="none">
<path d="M10 169 c0 -74 4 -104 14 -115 11 -11 46 -14 150 -14 l136 0 0 101
c0 74 -4 104 -14 115 -11 11 -46 14 -150 14 l-136 0 0 -101z m270 -4 l0 -95
-130 0 -130 0 0 95 0 95 130 0 130 0 0 -95z m20 -20 l0 -95 -132 2 -133 2 128
3 127 4 0 89 c0 50 2 90 5 90 3 0 5 -43 5 -95z"/>
<path d="M64 205 c-4 -9 -2 -21 4 -27 15 -15 44 -1 40 19 -4 23 -36 29 -44 8z
m36 -10 c0 -8 -7 -15 -15 -15 -8 0 -15 7 -15 15 0 8 7 15 15 15 8 0 15 -7 15
-15z"/>
<path d="M193 138 c-17 -17 -25 -19 -36 -10 -11 9 -18 7 -33 -9 -10 -12 -28
-25 -39 -30 -12 -4 22 -7 85 -7 79 1 92 3 52 7 l-54 6 30 28 c25 25 30 26 42
12 7 -8 17 -15 23 -15 5 0 2 9 -8 20 -23 26 -35 25 -62 -2z m-35 -30 c-3 -7
-15 -15 -28 -16 -21 -3 -22 -2 -11 12 16 19 44 21 39 4z"/>
<path d="M38 83 c7 -3 16 -2 19 1 4 3 -2 6 -13 5 -11 0 -14 -3 -6 -6z"/>
</g>
</svg>
