<?xml version="1.0" standalone="no"?>
<!DOCTYPE svg PUBLIC "-//W3C//DTD SVG 20010904//EN"
 "http://www.w3.org/TR/2001/REC-SVG-20010904/DTD/svg10.dtd">
<svg version="1.0" xmlns="http://www.w3.org/2000/svg"
 width="64.000000pt" height="64.000000pt" viewBox="0 0 64.000000 64.000000"
 preserveAspectRatio="xMidYMid meet">

<g transform="translate(0.000000,64.000000) scale(0.100000,-0.100000)"
fill="#000000" stroke="none">
<path d="M277 574 c-4 -4 -7 -17 -7 -29 0 -33 -44 -50 -76 -28 -25 16 -26 15
-56 -15 -30 -30 -31 -31 -15 -56 22 -34 6 -74 -32 -78 -24 -3 -26 -7 -26 -48
0 -41 2 -45 26 -48 38 -4 54 -44 32 -78 -16 -25 -15 -26 15 -56 30 -30 31 -31
56 -15 34 22 74 6 78 -32 3 -24 7 -26 48 -26 41 0 45 2 48 27 4 36 47 52 80
30 22 -14 25 -13 54 16 29 29 30 32 16 54 -22 33 -6 76 30 80 25 3 27 7 27 48
0 41 -2 45 -26 48 -38 4 -54 44 -32 78 16 25 15 26 -15 56 -29 29 -32 30 -54
16 -33 -22 -76 -6 -80 30 -3 24 -8 27 -43 30 -23 2 -44 0 -48 -4z m73 -47 c0
-33 69 -62 98 -41 17 11 22 11 35 -4 13 -14 13 -20 2 -35 -20 -28 9 -97 42
-97 19 0 23 -5 23 -30 0 -24 -4 -30 -22 -30 -32 0 -63 -70 -43 -97 11 -15 11
-21 -2 -35 -13 -15 -18 -15 -35 -4 -28 20 -98 -9 -98 -41 0 -19 -6 -23 -30
-23 -25 0 -30 4 -30 23 0 33 -69 62 -98 41 -17 -11 -22 -11 -35 4 -13 14 -13
20 -2 35 20 28 -9 97 -42 97 -19 0 -23 5 -23 30 0 25 4 30 23 30 33 0 62 69
41 98 -11 17 -11 22 4 35 14 13 20 13 35 2 28 -20 97 9 97 42 0 19 5 23 30 23
25 0 30 -4 30 -23z"/>
<path d="M263 420 c-34 -21 -63 -66 -63 -100 0 -54 65 -120 118 -120 57 0 122
64 122 120 0 56 -65 120 -122 120 -13 0 -37 -9 -55 -20z m121 -36 c19 -19 26
-37 26 -64 0 -81 -96 -121 -154 -64 -57 58 -17 154 64 154 27 0 45 -7 64 -26z"/>
</g>
</svg>
